<svg width="24" height="28" viewBox="0 0 24 28" fill="none" xmlns="http://www.w3.org/2000/svg">
<path id="Vector" fill-rule="evenodd" clip-rule="evenodd" d="M14.1666 4.58333C14.1666 2.05202 16.228 0 18.7708 0C21.3136 0 23.375 2.05202 23.375 4.58333C23.375 7.11463 21.3136 9.16667 18.7708 9.16667C17.4868 9.16667 16.3265 8.64319 15.4923 7.80102L9.11859 12.1406C9.17744 12.4334 9.20837 12.7359 9.20837 13.0449C9.20837 13.6568 9.08737 14.2417 8.86819 14.7763L15.8569 19.368C16.6501 18.7221 17.665 18.3333 18.7708 18.3333C21.3136 18.3333 23.375 20.3853 23.375 22.9167C23.375 25.4479 21.3136 27.5 18.7708 27.5C16.228 27.5 14.1666 25.4479 14.1666 22.9167C14.1666 22.2537 14.3085 21.6226 14.5636 21.0528L7.63135 16.4982C6.82269 17.201 5.76345 17.6282 4.60416 17.6282C2.06136 17.6282 0 15.5761 0 13.0449C0 10.5136 2.06136 8.46154 4.60416 8.46154C6.06636 8.46154 7.36798 9.13997 8.21074 10.1959L14.3879 5.99008C14.2442 5.54619 14.1666 5.0732 14.1666 4.58333Z" fill="#FFFFFE"/>
</svg>
